<?xml version="1.0" standalone="no"?>
<!DOCTYPE svg PUBLIC "-//W3C//DTD SVG 20010904//EN"
 "http://www.w3.org/TR/2001/REC-SVG-20010904/DTD/svg10.dtd">
<svg version="1.0" xmlns="http://www.w3.org/2000/svg"
 width="5889.000000pt" height="625.000000pt" viewBox="0 0 5889.000000 625.000000"
 preserveAspectRatio="xMidYMid meet">
<metadata>
Created by potrace 1.15, written by Peter Selinger 2001-2017
</metadata>
<g transform="translate(0.000000,625.000000) scale(0.100000,-0.100000)"
fill="#000000" stroke="none">
<path d="M3086 6154 c-11 -81 -8 -134 8 -134 10 0 16 13 18 38 l4 37 10 -35
c14 -48 42 -52 51 -8 l7 33 6 -30 c3 -19 12 -31 24 -33 17 -4 18 0 12 43 -3
26 -6 68 -6 92 0 64 -27 55 -50 -17 l-17 -55 -12 45 c-18 68 -19 70 -34 70 -9
0 -17 -16 -21 -46z"/>
<path d="M3391 6106 c-36 -96 -36 -96 -16 -96 8 0 15 5 15 10 0 16 50 12 56
-5 6 -16 34 -21 34 -7 0 9 -18 115 -25 148 -3 12 -11 24 -19 27 -9 4 -23 -19
-45 -77z"/>
<path d="M2734 6172 c-6 -4 -17 -18 -23 -31 -13 -24 -26 -19 -33 11 -2 11 -8
15 -16 10 -17 -12 5 -172 25 -172 7 0 13 11 13 27 l0 26 23 -21 c13 -12 35
-22 50 -22 26 0 25 1 -16 40 l-42 39 28 51 c27 47 23 64 -9 42z"/>
<path d="M3637 6072 c-13 -67 -14 -88 -4 -94 8 -5 15 3 20 25 19 71 23 72 36
14 9 -43 17 -57 30 -57 14 0 20 17 33 83 10 52 13 86 7 92 -13 13 -25 -7 -34
-59 l-8 -41 -14 57 c-10 37 -21 58 -32 61 -15 4 -20 -9 -34 -81z"/>
<path d="M2427 6113 c-4 -3 -7 -22 -7 -40 0 -29 5 -36 35 -49 45 -18 48 -46 5
-37 -34 6 -39 -6 -11 -31 25 -23 52 -17 67 13 17 33 4 63 -34 81 -38 18 -43
39 -7 32 27 -5 32 7 13 26 -13 13 -50 16 -61 5z"/>
<path d="M3918 6003 c-33 -54 -44 -79 -36 -85 7 -4 18 -2 25 3 16 14 53 2 53
-17 0 -8 7 -14 15 -14 13 0 15 15 13 92 -2 50 -7 93 -13 95 -5 1 -31 -32 -57
-74z"/>
<path d="M2234 6063 c-15 -5 36 -173 53 -173 18 0 16 14 -10 97 -26 80 -27 82
-43 76z"/>
<path d="M35350 3320 l0 -2740 569 0 570 0 4 1118 c3 1099 4 1118 25 1209 27
118 68 213 130 305 86 126 184 201 327 249 94 32 295 34 395 5 208 -63 334
-236 385 -531 13 -77 15 -249 15 -1222 l0 -1133 570 0 571 0 -4 1303 c-4 1269
-4 1305 -24 1412 -53 276 -111 437 -220 604 -50 75 -204 229 -278 276 -198
126 -428 185 -726 185 -297 0 -527 -67 -753 -219 -96 -65 -264 -229 -340 -333
-31 -43 -61 -78 -66 -78 -7 0 -10 401 -10 1165 l0 1165 -570 0 -570 0 0 -2740z"/>
<path d="M48850 3320 l0 -2740 570 0 570 0 0 2740 0 2740 -570 0 -570 0 0
-2740z"/>
<path d="M4194 5990 c-46 -18 -70 -92 -44 -140 9 -16 77 -48 84 -38 1 1 9 21
18 44 l15 41 -28 10 c-23 9 -29 8 -34 -5 -3 -9 -1 -18 4 -20 21 -7 11 -23 -11
-20 -30 4 -37 52 -12 79 21 23 32 24 54 4 14 -13 19 -13 28 -2 24 29 -32 64
-74 47z"/>
<path d="M1998 5980 c-15 -9 -13 -18 15 -90 18 -45 38 -80 46 -80 9 0 11 8 7
25 -7 29 0 32 25 9 12 -11 23 -13 34 -7 13 8 12 12 -10 33 -15 14 -25 34 -25
52 0 50 -50 82 -92 58z m60 -58 c4 -25 -13 -30 -22 -6 -9 25 -7 36 7 32 6 -3
13 -14 15 -26z"/>
<path d="M4400 5829 c-23 -45 -40 -82 -38 -84 2 -2 21 -10 42 -19 32 -13 41
-14 48 -4 7 12 -10 32 -35 41 -6 2 -8 11 -4 21 6 14 10 15 28 5 32 -16 46 10
17 32 -26 20 -16 44 12 29 26 -14 37 -13 44 5 4 10 -7 21 -34 35 l-40 20 -40
-81z"/>
<path d="M2945 5874 c-473 -40 -916 -191 -1305 -448 -164 -108 -257 -183 -403
-325 -154 -150 -256 -272 -372 -446 -238 -357 -378 -726 -442 -1160 -24 -168
-24 -562 0 -730 64 -434 204 -803 442 -1160 116 -175 218 -296 376 -450 424
-412 942 -664 1544 -752 168 -24 562 -24 730 0 500 73 943 261 1335 566 111
86 312 282 412 401 271 322 473 731 568 1150 52 225 64 342 64 610 0 268 -12
385 -64 610 -76 336 -200 623 -395 915 -116 175 -218 296 -376 450 -418 406
-929 657 -1514 746 -127 19 -480 33 -600 23z m374 -287 c8 -10 7 -19 -4 -33
-20 -26 -19 -33 8 -45 28 -13 49 -53 34 -68 -7 -7 -5 -27 7 -63 11 -34 13 -54
6 -56 -5 -2 -10 -18 -10 -36 0 -18 -7 -54 -16 -80 -9 -26 -14 -56 -11 -66 4
-15 -1 -22 -19 -26 -73 -18 -100 38 -96 199 1 54 -2 116 -8 138 -12 45 2 69
40 69 20 0 22 4 16 34 -7 34 -4 38 35 45 4 0 12 -5 18 -12z m-960 -96 c29 -41
9 -44 -62 -10 -61 28 -59 35 10 38 24 1 36 -6 52 -28z m197 -72 c0 -32 3 -35
45 -44 65 -16 98 -35 92 -52 -5 -13 -7 -13 -15 1 -9 17 -48 23 -48 7 0 -5 -3
-23 -6 -40 -5 -23 -3 -31 8 -31 12 0 13 -12 7 -67 -5 -38 -14 -87 -20 -111
-11 -38 -10 -44 7 -57 10 -8 14 -15 8 -15 -21 0 -35 27 -41 81 -6 49 -29 89
-52 89 -36 0 -57 -93 -27 -122 11 -12 9 -18 -17 -43 l-30 -30 18 34 c16 32 16
35 -4 62 -31 41 -37 84 -17 114 9 14 17 28 17 32 0 5 8 16 17 26 12 14 13 24
6 45 -8 23 -15 27 -51 27 -50 0 -62 9 -33 25 14 7 19 17 15 28 -5 14 -3 14 13
-2 14 -12 28 -15 46 -10 36 9 41 22 20 46 -18 19 -18 20 1 34 28 20 40 12 41
-27z m1493 2 c10 -6 12 -19 7 -44 -6 -31 -4 -36 22 -46 48 -20 89 -89 63 -105
-5 -4 -7 4 -4 15 6 23 -18 49 -44 49 -19 0 -17 -79 2 -86 10 -4 12 -11 6 -22
-14 -28 -19 -93 -12 -175 6 -75 6 -77 -11 -55 -10 13 -18 41 -18 65 0 62 -20
143 -34 143 -17 0 -46 -92 -46 -146 0 -32 -5 -46 -19 -53 -17 -10 -18 -8 -11
26 5 20 12 68 15 108 6 60 4 73 -8 78 -14 5 -12 13 8 54 25 49 20 78 -10 53
-23 -19 -19 6 5 30 11 11 27 20 35 20 21 0 35 30 22 51 -10 17 -4 49 10 49 4
0 14 -4 22 -9z m-2130 -224 c8 -10 7 -19 -4 -33 -20 -26 -19 -33 8 -45 28 -13
49 -53 34 -68 -7 -7 -5 -27 7 -63 11 -34 13 -54 6 -56 -5 -2 -10 -18 -10 -36
0 -18 -7 -54 -16 -80 -9 -26 -14 -56 -11 -66 4 -15 -1 -22 -19 -26 -73 -18
-100 38 -96 199 1 54 -2 116 -8 138 -12 45 2 69 40 69 20 0 22 4 16 34 -7 34
-4 38 35 45 4 0 12 -5 18 -12z m2008 -51 c1 -1 -1 -13 -4 -28 -4 -23 -11 -28
-33 -28 -23 0 -28 5 -32 30 -2 16 0 31 6 34 9 3 55 -3 63 -8z m749 -149 c3 -8
6 -27 7 -43 2 -20 9 -30 22 -33 23 -4 35 -19 35 -44 0 -10 9 -36 20 -59 l19
-40 -23 4 c-22 4 -24 1 -30 -46 -9 -74 -7 -146 3 -183 5 -18 6 -35 2 -38 -18
-10 -39 34 -51 104 -10 62 -14 71 -23 55 -6 -10 -13 -50 -16 -88 -7 -81 -31
-107 -31 -33 0 45 -16 70 -41 65 -17 -4 -25 57 -11 75 5 7 6 21 2 32 -4 11 -6
31 -4 45 2 14 6 51 9 82 5 47 10 58 28 64 40 12 49 25 32 44 -15 16 -14 19 0
34 20 20 44 21 51 3z m-1197 -357 c555 -118 997 -510 1172 -1041 62 -189 73
-267 73 -489 0 -147 -4 -217 -17 -284 -146 -724 -748 -1245 -1473 -1273 -770
-30 -1431 487 -1596 1251 -19 85 -22 132 -22 306 0 174 3 221 22 306 143 659
646 1135 1312 1240 129 20 398 12 529 -16z m-2133 7 c3 -8 6 -27 7 -43 2 -20
9 -30 22 -33 23 -4 35 -19 35 -44 0 -10 9 -36 20 -59 l19 -40 -23 4 c-22 4
-24 1 -30 -46 -9 -74 -7 -146 3 -183 5 -18 6 -35 2 -38 -18 -10 -39 34 -51
104 -10 62 -14 71 -23 55 -6 -10 -13 -50 -16 -88 -7 -81 -31 -107 -31 -33 0
45 -16 70 -41 65 -17 -4 -25 57 -11 75 5 7 6 21 2 32 -4 11 -6 31 -4 45 2 14
6 51 9 82 5 47 10 58 28 64 40 12 49 25 32 44 -15 16 -14 19 0 34 20 20 44 21
51 3z m3843 -300 c8 -10 7 -19 -4 -33 -20 -26 -19 -33 8 -45 28 -13 49 -53 34
-68 -7 -7 -5 -27 7 -63 11 -34 13 -54 6 -56 -5 -2 -10 -18 -10 -36 0 -18 -7
-54 -16 -80 -9 -26 -14 -56 -11 -66 4 -15 -1 -22 -19 -26 -73 -18 -100 38 -96
199 1 54 -2 116 -8 138 -12 45 2 69 40 69 20 0 22 4 16 34 -7 34 -4 38 35 45
4 0 12 -5 18 -12z m-4160 -510 c8 -10 7 -19 -4 -33 -20 -26 -19 -33 8 -45 28
-13 49 -53 34 -68 -7 -7 -5 -27 7 -63 11 -34 13 -54 6 -56 -5 -2 -10 -18 -10
-36 0 -18 -7 -54 -16 -80 -9 -26 -14 -56 -11 -66 4 -15 -1 -22 -19 -26 -73
-18 -100 38 -96 199 1 54 -2 116 -8 138 -12 45 2 69 40 69 20 0 22 4 16 34 -7
34 -4 38 35 45 4 0 12 -5 18 -12z m4380 -340 c8 -10 7 -19 -4 -33 -20 -26 -19
-33 8 -45 28 -13 49 -53 34 -68 -7 -7 -5 -27 7 -63 11 -34 13 -54 6 -56 -5 -2
-10 -18 -10 -36 0 -18 -7 -54 -16 -80 -9 -26 -14 -56 -11 -66 4 -15 -1 -22
-19 -26 -73 -18 -100 38 -96 199 1 54 -2 116 -8 138 -12 45 2 69 40 69 20 0
22 4 16 34 -7 34 -4 38 35 45 4 0 12 -5 18 -12z m-4363 -590 c3 -8 6 -27 7
-43 2 -20 9 -30 22 -33 23 -4 35 -19 35 -44 0 -10 9 -36 20 -59 l19 -40 -23 4
c-22 4 -24 1 -30 -46 -9 -74 -7 -146 3 -183 5 -18 6 -35 2 -38 -18 -10 -39 34
-51 104 -10 62 -14 71 -23 55 -6 -10 -13 -50 -16 -88 -7 -81 -31 -107 -31 -33
0 45 -16 70 -41 65 -17 -4 -25 57 -11 75 5 7 6 21 2 32 -4 11 -6 31 -4 45 2
14 6 51 9 82 5 47 10 58 28 64 40 12 49 25 32 44 -15 16 -14 19 0 34 20 20 44
21 51 3z m4213 -246 c10 -6 12 -19 7 -44 -6 -31 -4 -36 22 -46 48 -20 89 -89
63 -105 -5 -4 -7 4 -4 15 6 23 -18 49 -44 49 -19 0 -17 -79 2 -86 10 -4 12
-11 6 -22 -14 -28 -19 -93 -12 -175 6 -75 6 -77 -11 -55 -10 13 -18 41 -18 65
0 62 -20 143 -34 143 -17 0 -46 -92 -46 -146 0 -32 -5 -46 -19 -53 -17 -10
-18 -8 -11 26 5 20 12 68 15 108 6 60 4 73 -8 78 -14 5 -12 13 8 54 25 49 20
78 -10 53 -23 -19 -19 6 5 30 11 11 27 20 35 20 21 0 35 30 22 51 -10 17 -4
49 10 49 4 0 14 -4 22 -9z m-122 -275 c1 -1 -1 -13 -4 -28 -4 -23 -11 -28 -33
-28 -23 0 -28 5 -32 30 -2 16 0 31 6 34 9 3 55 -3 63 -8z m-3698 -345 c10 -6
12 -19 7 -44 -6 -31 -4 -36 22 -46 48 -20 89 -89 63 -105 -5 -4 -7 4 -4 15 6
23 -18 49 -44 49 -19 0 -17 -79 2 -86 10 -4 12 -11 6 -22 -14 -28 -19 -93 -12
-175 6 -75 6 -77 -11 -55 -10 13 -18 41 -18 65 0 62 -20 143 -34 143 -17 0
-46 -92 -46 -146 0 -32 -5 -46 -19 -53 -17 -10 -18 -8 -11 26 5 20 12 68 15
108 6 60 4 73 -8 78 -14 5 -12 13 8 54 25 49 20 78 -10 53 -23 -19 -19 6 5 30
11 11 27 20 35 20 21 0 35 30 22 51 -10 17 -4 49 10 49 4 0 14 -4 22 -9z
m3477 -74 c3 -8 6 -27 7 -43 2 -20 9 -30 22 -33 23 -4 35 -19 35 -44 0 -10 9
-36 20 -59 l19 -40 -23 4 c-22 4 -24 1 -30 -46 -9 -74 -7 -146 3 -183 5 -18 6
-35 2 -38 -18 -10 -39 34 -51 104 -10 62 -14 71 -23 55 -6 -10 -13 -50 -16
-88 -7 -81 -31 -107 -31 -33 0 45 -16 70 -41 65 -17 -4 -25 57 -11 75 5 7 6
21 2 32 -4 11 -6 31 -4 45 2 14 6 51 9 82 5 47 10 58 28 64 40 12 49 25 32 44
-15 16 -14 19 0 34 20 20 44 21 51 3z m-3599 -201 c1 -1 -1 -13 -4 -28 -4 -23
-11 -28 -33 -28 -23 0 -28 5 -32 30 -2 16 0 31 6 34 9 3 55 -3 63 -8z m712
-309 c8 -10 7 -19 -4 -33 -20 -26 -19 -33 8 -45 28 -13 49 -53 34 -68 -7 -7
-5 -27 7 -63 11 -34 13 -54 6 -56 -5 -2 -10 -18 -10 -36 0 -18 -7 -54 -16 -80
-9 -26 -14 -56 -11 -66 4 -15 -1 -22 -19 -26 -73 -18 -100 38 -96 199 1 54 -2
116 -8 138 -12 45 2 69 40 69 20 0 22 4 16 34 -7 34 -4 38 35 45 4 0 12 -5 18
-12z m2060 -66 c29 -41 9 -44 -62 -10 -61 28 -59 35 10 38 24 1 36 -6 52 -28z
m197 -72 c0 -32 3 -35 45 -44 65 -16 98 -35 92 -52 -5 -13 -7 -13 -15 1 -9 17
-48 23 -48 7 0 -5 -3 -23 -6 -40 -5 -23 -3 -31 8 -31 12 0 13 -12 7 -67 -5
-38 -14 -87 -20 -111 -11 -38 -10 -44 7 -57 10 -8 14 -15 8 -15 -21 0 -35 27
-41 81 -6 49 -29 89 -52 89 -36 0 -57 -93 -27 -122 11 -12 9 -18 -17 -43 l-30
-30 18 34 c16 32 16 35 -4 62 -31 41 -37 84 -17 114 9 14 17 28 17 32 0 5 8
16 17 26 12 14 13 24 6 45 -8 23 -15 27 -51 27 -50 0 -62 9 -33 25 14 7 19 17
15 28 -5 14 -3 14 13 -2 14 -12 28 -15 46 -10 36 9 41 22 20 46 -18 19 -18 20
1 34 28 20 40 12 41 -27z m-1530 -142 c3 -8 6 -27 7 -43 2 -20 9 -30 22 -33
23 -4 35 -19 35 -44 0 -10 9 -36 20 -59 l19 -40 -23 4 c-22 4 -24 1 -30 -46
-9 -74 -7 -146 3 -183 5 -18 6 -35 2 -38 -18 -10 -39 34 -51 104 -10 62 -14
71 -23 55 -6 -10 -13 -50 -16 -88 -7 -81 -31 -107 -31 -33 0 45 -16 70 -41 65
-17 -4 -25 57 -11 75 5 7 6 21 2 32 -4 11 -6 31 -4 45 2 14 6 51 9 82 5 47 10
58 28 64 40 12 49 25 32 44 -15 16 -14 19 0 34 20 20 44 21 51 3z m823 -16
c10 -6 12 -19 7 -44 -6 -31 -4 -36 22 -46 48 -20 89 -89 63 -105 -5 -4 -7 4
-4 15 6 23 -18 49 -44 49 -19 0 -17 -79 2 -86 10 -4 12 -11 6 -22 -14 -28 -19
-93 -12 -175 6 -75 6 -77 -11 -55 -10 13 -18 41 -18 65 0 62 -20 143 -34 143
-17 0 -46 -92 -46 -146 0 -32 -5 -46 -19 -53 -17 -10 -18 -8 -11 26 5 20 12
68 15 108 6 60 4 73 -8 78 -14 5 -12 13 8 54 25 49 20 78 -10 53 -23 -19 -19
6 5 30 11 11 27 20 35 20 21 0 35 30 22 51 -10 17 -4 49 10 49 4 0 14 -4 22
-9z m-122 -275 c1 -1 -1 -13 -4 -28 -4 -23 -11 -28 -33 -28 -23 0 -28 5 -32
30 -2 16 0 31 6 34 9 3 55 -3 63 -8z"/>
<path d="M3265 5236 c-15 -23 -10 -65 9 -69 10 -2 37 74 30 85 -9 14 -23 9
-39 -16z"/>
<path d="M1865 4846 c-15 -23 -10 -65 9 -69 10 -2 37 74 30 85 -9 14 -23 9
-39 -16z"/>
<path d="M2951 3558 c-10 -24 -37 -92 -60 -153 -24 -60 -49 -123 -56 -140 -7
-16 -23 -59 -36 -95 -12 -36 -25 -69 -29 -75 -4 -5 -15 -35 -26 -65 -10 -30
-22 -61 -27 -67 -14 -19 10 -24 94 -21 l74 3 18 55 c28 83 24 81 160 78 l119
-3 25 -67 25 -68 85 0 c77 0 85 2 80 18 -10 32 -58 157 -71 187 -8 17 -17 41
-21 55 -4 14 -16 43 -26 65 -10 22 -38 93 -64 159 -73 190 -61 176 -161 176
l-85 0 -18 -42z m152 -253 c21 -58 36 -109 33 -113 -2 -4 -40 -6 -85 -4 l-80
4 20 51 c11 29 27 75 36 102 17 56 21 65 31 65 4 0 24 -48 45 -105z"/>
<path d="M3420 3270 l0 -330 80 0 80 0 1 188 0 187 24 -30 c14 -16 46 -59 73
-95 26 -36 54 -65 61 -65 15 0 38 29 137 175 32 47 91 131 131 188 40 56 73
104 73 107 0 3 -33 5 -72 5 l-73 0 -90 -125 c-49 -68 -93 -123 -97 -122 -4 1
-34 39 -66 85 -33 45 -76 100 -96 122 -35 39 -38 40 -101 40 l-65 0 0 -330z"/>
<path d="M2392 3571 c-83 -43 -116 -163 -69 -251 20 -37 41 -55 118 -102 52
-31 101 -67 109 -79 13 -20 12 -23 -15 -46 -25 -22 -34 -24 -79 -18 -28 3 -70
17 -93 31 -23 13 -44 24 -47 24 -3 0 -6 -33 -6 -74 l0 -75 55 -20 c75 -28 200
-29 253 -2 72 37 102 87 102 172 0 82 -42 136 -150 193 -98 51 -120 81 -90
118 18 23 23 24 75 17 34 -4 73 -18 96 -33 21 -14 41 -26 44 -26 11 0 5 138
-7 147 -57 43 -231 57 -296 24z"/>
<path d="M4029 3338 c-7 -13 -29 -44 -51 -71 -21 -27 -38 -53 -38 -58 0 -5 25
-9 55 -9 l55 0 0 64 c0 35 3 71 6 80 9 24 -14 19 -27 -6z"/>
<path d="M3910 3005 l0 -65 70 0 c40 0 70 4 71 10 0 6 1 34 1 63 l1 52 -72 3
-71 3 0 -66z"/>
<path d="M2413 2825 c-16 -11 -23 -26 -23 -49 0 -39 11 -51 59 -63 44 -11 57
-38 15 -31 -16 3 -37 8 -46 12 -11 5 -20 1 -28 -14 -10 -18 -7 -22 24 -35 72
-30 126 -9 126 50 0 37 -21 57 -72 69 -44 10 -34 30 11 22 27 -4 42 -2 50 8
27 33 -76 61 -116 31z"/>
<path d="M2665 2831 c-65 -28 -82 -118 -32 -168 38 -39 105 -40 143 -2 l27 27
-23 12 c-18 9 -25 9 -40 -5 -25 -23 -61 -15 -79 16 -13 24 -13 29 2 53 20 29
52 34 78 10 14 -13 22 -13 39 -4 l23 12 -25 24 c-26 27 -81 39 -113 25z"/>
<path d="M2860 2735 l0 -105 25 0 c22 0 25 4 25 35 0 33 2 35 35 35 33 0 35
-2 35 -35 0 -31 3 -35 25 -35 l25 0 0 105 0 105 -25 0 c-23 0 -25 -4 -25 -45
0 -45 0 -45 -35 -45 -35 0 -35 0 -35 45 0 41 -2 45 -25 45 l-25 0 0 -105z"/>
<path d="M3161 2827 c-97 -56 -41 -216 67 -192 75 16 105 117 51 170 -30 31
-85 41 -118 22z m86 -63 c15 -24 15 -29 2 -53 -27 -48 -89 -31 -89 24 0 53 58
73 87 29z"/>
<path d="M3433 2830 c-27 -11 -63 -66 -63 -96 0 -32 41 -86 73 -97 64 -21 127
25 127 93 0 52 -13 76 -50 95 -32 17 -54 18 -87 5z m75 -52 c17 -17 15 -64 -4
-83 -23 -22 -56 -15 -73 16 -13 24 -13 29 2 53 19 28 54 35 75 14z"/>
<path d="M3640 2735 l0 -106 73 3 c64 3 72 5 72 23 0 17 -8 20 -47 23 l-48 3
0 80 c0 78 0 79 -25 79 l-25 0 0 -105z"/>
<path d="M3863 2825 c-16 -11 -23 -26 -23 -49 0 -39 11 -51 59 -63 44 -11 57
-38 15 -31 -16 3 -37 8 -46 12 -11 5 -20 1 -28 -14 -10 -18 -7 -22 24 -35 72
-30 126 -9 126 50 0 37 -21 57 -72 69 -44 10 -34 30 11 22 27 -4 42 -2 50 8
27 33 -76 61 -116 31z"/>
<path d="M5135 3996 c-15 -23 -10 -65 9 -69 10 -2 37 74 30 85 -9 14 -23 9
-39 -16z"/>
<path d="M975 3486 c-15 -23 -10 -65 9 -69 10 -2 37 74 30 85 -9 14 -23 9 -39
-16z"/>
<path d="M5355 3146 c-15 -23 -10 -65 9 -69 10 -2 37 74 30 85 -9 14 -23 9
-39 -16z"/>
<path d="M1975 1106 c-15 -23 -10 -65 9 -69 10 -2 37 74 30 85 -9 14 -23 9
-39 -16z"/>
<path d="M8483 5825 c-705 -80 -1189 -329 -1458 -750 -197 -308 -259 -738
-164 -1130 93 -381 330 -676 743 -928 139 -85 291 -158 621 -299 400 -172 609
-291 746 -428 89 -89 120 -135 150 -222 28 -82 23 -226 -10 -301 -76 -174
-256 -285 -545 -337 -137 -25 -420 -27 -579 -5 -401 56 -758 204 -1064 442
-45 34 -84 63 -87 63 -3 0 -6 -260 -6 -577 l0 -578 53 -24 c165 -76 402 -151
582 -185 44 -8 168 -28 275 -42 184 -26 217 -28 565 -28 379 1 463 6 705 50
433 78 762 239 997 488 196 207 299 422 349 725 23 145 15 484 -15 616 -67
297 -193 506 -436 722 -219 195 -522 364 -1040 583 -419 177 -676 354 -771
532 -38 72 -39 75 -39 183 0 99 3 116 27 168 85 181 279 294 588 343 128 20
453 15 597 -10 331 -57 619 -163 851 -314 l22 -14 0 541 c0 297 -2 541 -5 541
-2 0 -62 18 -132 41 -157 49 -402 102 -583 124 -186 24 -766 30 -937 10z"/>
<path d="M29173 5825 c-705 -80 -1189 -329 -1458 -750 -197 -308 -259 -738
-164 -1130 93 -381 330 -676 743 -928 139 -85 291 -158 621 -299 400 -172 609
-291 746 -428 89 -89 120 -135 150 -222 28 -82 23 -226 -10 -301 -76 -174
-256 -285 -545 -337 -137 -25 -420 -27 -579 -5 -401 56 -758 204 -1064 442
-45 34 -84 63 -87 63 -3 0 -6 -260 -6 -577 l0 -578 53 -24 c165 -76 402 -151
582 -185 44 -8 168 -28 275 -42 184 -26 217 -28 565 -28 379 1 463 6 705 50
433 78 762 239 997 488 196 207 299 422 349 725 23 145 15 484 -15 616 -67
297 -193 506 -436 722 -219 195 -522 364 -1040 583 -419 177 -676 354 -771
532 -38 72 -39 75 -39 183 0 99 3 116 27 168 85 181 279 294 588 343 128 20
453 15 597 -10 331 -57 619 -163 851 -314 l22 -14 0 541 c0 297 -2 541 -5 541
-2 0 -62 18 -132 41 -157 49 -402 102 -583 124 -186 24 -766 30 -937 10z"/>
<path d="M4616 5719 c-25 -38 -46 -73 -46 -79 0 -20 26 -9 43 18 l17 27 -6
-42 c-8 -50 5 -56 44 -20 23 20 25 21 17 2 -16 -43 -17 -55 -4 -55 8 0 32 34
54 75 31 59 37 77 27 87 -10 10 -22 3 -58 -32 -45 -45 -45 -45 -38 -15 4 17
11 40 15 53 12 32 11 39 -5 45 -9 4 -30 -18 -60 -64z"/>
<path d="M12552 5733 c-5 -16 -429 -1179 -941 -2586 -512 -1407 -931 -2561
-931 -2563 0 -2 284 -3 631 -2 l632 3 181 572 181 573 920 -3 920 -2 125 -390
c69 -214 151 -472 183 -572 l58 -183 635 0 635 0 -7 23 c-4 12 -417 1176 -919
2587 l-912 2565 -690 3 -691 2 -10 -27z m702 -1036 c9 -74 30 -183 45 -243 16
-60 151 -492 300 -961 149 -468 271 -854 271 -857 0 -3 -295 -6 -655 -6 -360
0 -655 3 -655 7 0 4 123 395 274 868 313 981 341 1074 356 1205 13 112 15 120
33 120 10 0 18 -37 31 -133z"/>
<path d="M16420 3170 l0 -2590 526 0 525 0 -4 1818 c-3 1132 -8 1881 -15 1987
-26 411 -26 395 -8 395 18 0 14 15 67 -245 66 -326 90 -411 238 -830 78 -220
359 -1012 624 -1760 l482 -1360 480 -2 480 -3 583 1693 c749 2176 680 1963
751 2312 42 203 39 195 57 195 13 0 14 -9 10 -52 -34 -303 -45 -1003 -46
-2675 l0 -1473 575 0 575 0 0 2590 0 2590 -828 0 -829 0 -541 -1567 c-297
-863 -554 -1611 -571 -1664 -32 -104 -95 -338 -132 -492 -13 -53 -27 -96 -33
-94 -5 2 -29 93 -52 203 -23 109 -69 289 -102 399 -34 110 -295 877 -580 1705
l-520 1505 -856 3 -856 2 0 -2590z"/>
<path d="M25199 5558 c-423 -846 -1133 -1865 -1981 -2846 l-168 -194 0 -439 0
-439 1130 0 1130 0 0 -530 0 -530 520 0 520 0 0 530 0 530 315 0 315 0 0 425
0 425 -315 0 -315 0 0 1635 0 1635 -525 0 -525 0 -101 -202z m111 -2173 l0
-895 -610 0 c-335 0 -610 3 -610 6 0 3 35 49 78 102 391 486 833 1133 1077
1575 33 59 61 107 62 107 2 0 3 -403 3 -895z"/>
<path d="M54010 5540 l0 -220 310 0 310 0 0 -975 0 -975 280 0 280 0 0 975 0
975 325 0 325 0 0 220 0 220 -915 0 -915 0 0 -220z"/>
<path d="M56070 4565 l0 -1195 270 0 270 0 0 806 c0 640 3 805 13 802 6 -3
129 -365 271 -806 l260 -802 241 0 241 0 288 793 c159 435 292 799 297 807 5
8 9 -340 9 -792 l0 -808 270 0 270 0 0 1195 0 1195 -363 0 -362 0 -305 -815
c-168 -448 -309 -815 -315 -815 -5 0 -134 366 -285 813 l-275 812 -397 3 -398
2 0 -1195z"/>
<path d="M1487 5713 c-24 -15 -35 -28 -31 -36 36 -60 87 -137 91 -137 3 0 21
10 40 21 22 14 32 27 29 36 -3 8 -6 17 -6 20 0 3 -12 -2 -26 -12 -20 -13 -29
-14 -38 -5 -8 8 -7 15 7 24 9 7 17 18 17 24 0 18 -20 24 -36 11 -12 -9 -17
-10 -27 0 -9 9 -7 16 12 30 17 13 21 22 15 33 -8 13 -14 12 -47 -9z"/>
<path d="M1756 5678 c-10 -23 -4 -49 10 -40 6 4 7 18 4 32 -6 21 -8 22 -14 8z"/>
<path d="M4859 5559 l-53 -71 35 -29 c30 -25 36 -26 49 -13 13 13 12 17 -9 33
-29 22 -21 47 11 30 30 -16 47 4 24 30 -25 28 -12 45 19 25 23 -15 45 -12 45
5 0 5 -15 20 -34 35 l-34 26 -53 -71z"/>
<path d="M1280 5560 c-38 -38 -13 -111 47 -137 33 -13 38 -13 62 5 33 24 40
52 13 52 -11 0 -22 -7 -26 -15 -3 -8 -14 -15 -25 -15 -46 0 -69 68 -31 92 11
7 20 18 20 25 0 20 -38 15 -60 -7z"/>
<path d="M5047 5406 c-62 -70 -61 -103 0 -45 34 33 35 33 29 9 -28 -104 -13
-122 47 -54 62 70 71 84 59 96 -6 6 -20 -4 -41 -29 -35 -42 -37 -37 -17 30 24
80 -2 78 -77 -7z"/>
<path d="M1094 5419 c-3 -6 8 -25 25 -43 17 -18 31 -35 31 -38 0 -4 -23 3 -50
15 -37 16 -53 18 -61 10 -17 -17 100 -146 119 -131 10 9 7 18 -20 46 -35 37
-30 38 39 11 25 -10 35 -11 45 -1 9 9 -2 26 -48 76 -63 68 -69 72 -80 55z"/>
<path d="M5291 5276 c-9 -11 -9 -16 -1 -21 8 -5 -6 -26 -40 -60 -35 -35 -48
-55 -40 -60 7 -4 30 11 59 39 34 34 51 44 67 40 35 -9 39 15 8 47 -32 33 -37
35 -53 15z"/>
<path d="M875 5190 c-11 -17 81 -163 99 -157 6 3 10 10 8 16 -4 20 19 53 33
47 7 -2 18 1 24 8 9 11 -6 22 -68 55 -87 45 -87 45 -96 31z m85 -60 c11 -7 12
-12 3 -21 -8 -8 -14 -6 -22 10 -12 22 -5 27 19 11z"/>
<path d="M724 5009 c-6 -10 41 -58 59 -59 4 0 7 -4 7 -9 0 -4 -24 -3 -54 4
-48 11 -55 11 -61 -3 -6 -16 10 -32 92 -92 57 -41 71 -19 17 27 -26 23 -32 33
-19 29 61 -16 92 -17 103 -4 9 11 -2 24 -58 66 -76 57 -76 57 -86 41z"/>
<path d="M5512 4921 c-40 -15 -73 -31 -73 -35 0 -5 10 -14 23 -20 13 -7 23
-21 23 -34 1 -49 20 -41 78 29 78 97 71 106 -51 60z"/>
<path d="M540 4745 c-13 -14 -20 -28 -16 -32 26 -27 142 -90 150 -83 6 6 3 17
-8 29 -17 19 -17 20 15 23 38 4 53 28 16 28 -13 0 -38 13 -55 30 -39 37 -71
38 -102 5z m68 -17 c16 -16 15 -28 -2 -28 -17 0 -38 24 -29 33 9 10 17 9 31
-5z"/>
<path d="M5655 4718 c-86 -51 -81 -46 -68 -59 9 -9 21 -6 46 10 49 30 52 27
17 -24 -25 -36 -29 -49 -20 -60 9 -11 24 -6 86 31 41 25 74 49 74 53 0 20 -16
18 -59 -7 l-46 -27 19 30 c11 17 25 38 32 49 12 17 9 46 -5 46 -3 0 -37 -19
-76 -42z"/>
<path d="M420 4530 l-20 -40 80 -40 80 -40 20 40 c19 38 19 40 1 49 -15 8 -20
6 -30 -15 -6 -14 -17 -24 -24 -21 -12 5 -13 11 -2 38 4 11 0 19 -12 23 -10 4
-19 4 -20 -1 -10 -27 -23 -37 -34 -26 -8 8 -8 16 1 32 11 22 6 41 -10 41 -5 0
-19 -18 -30 -40z"/>
<path d="M5783 4482 c-40 -20 -73 -42 -73 -48 0 -7 12 -22 27 -34 66 -52 170
21 142 98 -5 12 -12 22 -16 21 -4 0 -41 -17 -80 -37z m62 -31 c-3 -12 -15 -26
-26 -32 -21 -11 -59 -4 -59 11 0 9 82 50 88 44 2 -1 1 -12 -3 -23z"/>
<path d="M334 4345 c-4 -10 4 -24 22 -38 15 -12 35 -28 43 -34 13 -11 5 -12
-43 -10 -36 1 -60 -2 -63 -9 -4 -11 174 -40 185 -30 11 11 -10 35 -72 85 -53
41 -68 48 -72 36z"/>
<path d="M33290 4340 c-74 -10 -173 -27 -220 -38 -744 -169 -1268 -687 -1425
-1408 -73 -336 -75 -753 -5 -1049 79 -332 227 -595 471 -836 293 -292 660
-459 1119 -510 121 -13 589 -6 715 11 224 31 425 85 578 157 l77 36 0 459 0
459 -57 -32 c-32 -18 -74 -43 -94 -55 -63 -39 -250 -110 -369 -140 -107 -27
-128 -29 -310 -29 -182 0 -203 2 -310 29 -347 87 -581 325 -676 686 -26 99
-28 118 -28 325 -1 210 1 225 28 335 56 219 170 404 328 531 107 86 217 140
364 181 116 31 124 32 324 32 191 0 212 -2 310 -27 140 -36 285 -98 395 -168
l90 -58 3 481 c2 379 0 483 -10 490 -36 22 -172 73 -254 94 -178 45 -291 56
-609 60 -254 3 -321 0 -435 -16z"/>
<path d="M41283 4345 c-591 -76 -1040 -321 -1339 -730 -232 -317 -344 -711
-344 -1205 0 -597 165 -1041 515 -1393 356 -357 826 -527 1465 -527 634 0
1111 173 1474 534 362 360 536 830 536 1446 0 449 -95 799 -301 1108 -291 438
-735 693 -1331 766 -155 20 -528 20 -675 1z m599 -889 c227 -68 376 -211 465
-450 63 -166 78 -276 77 -566 0 -219 -3 -270 -21 -365 -74 -377 -236 -590
-518 -680 -86 -28 -98 -29 -275 -29 -174 0 -191 2 -280 28 -353 106 -540 403
-568 904 -34 614 176 1034 578 1155 109 33 135 36 310 32 120 -3 160 -8 232
-29z"/>
<path d="M45803 4345 c-591 -76 -1040 -321 -1339 -730 -232 -317 -344 -711
-344 -1205 0 -597 165 -1041 515 -1393 356 -357 826 -527 1465 -527 634 0
1111 173 1474 534 362 360 536 830 536 1446 0 449 -95 799 -301 1108 -291 438
-735 693 -1331 766 -155 20 -528 20 -675 1z m599 -889 c227 -68 376 -211 465
-450 63 -166 78 -276 77 -566 0 -219 -3 -270 -21 -365 -74 -377 -236 -590
-518 -680 -86 -28 -98 -29 -275 -29 -174 0 -191 2 -280 28 -353 106 -540 403
-568 904 -34 614 176 1034 578 1155 109 33 135 36 310 32 120 -3 160 -8 232
-29z"/>
<path d="M52075 4350 c-264 -22 -551 -100 -755 -208 -69 -36 -141 -77 -160
-91 -241 -176 -386 -407 -430 -684 -20 -121 -7 -378 23 -492 61 -226 194 -407
397 -542 180 -119 347 -192 723 -319 276 -93 388 -141 470 -203 82 -62 108
-107 114 -200 5 -68 3 -82 -20 -128 -31 -61 -72 -97 -152 -134 -112 -53 -203
-70 -402 -76 -213 -7 -320 4 -508 52 -179 45 -302 93 -494 191 -89 46 -165 84
-167 84 -2 0 -4 -208 -4 -463 l0 -462 138 -42 c174 -53 368 -96 547 -119 113
-15 201 -19 455 -18 293 1 326 3 475 28 248 42 399 85 562 162 359 170 583
450 649 807 26 143 15 388 -25 524 -94 324 -341 545 -816 730 -49 19 -182 66
-295 104 -412 140 -544 235 -557 403 -12 141 59 223 249 288 93 32 93 32 303
32 178 0 228 -3 325 -22 171 -33 371 -98 492 -158 59 -30 110 -54 113 -54 3 0
5 197 5 438 l0 439 -117 31 c-357 94 -772 131 -1138 102z"/>
<path d="M5925 4108 c-47 -25 -60 -81 -26 -112 16 -14 20 -15 30 -2 8 10 9 16
1 21 -5 3 -10 17 -10 30 0 43 70 62 90 25 6 -11 8 -24 6 -29 -5 -7 15 -21 30
-21 2 0 4 15 4 34 0 56 -68 86 -125 54z"/>
<path d="M240 4070 c-38 -38 -20 -93 37 -116 93 -39 163 63 81 120 -32 23 -93
21 -118 -4z m106 -31 c23 -26 9 -53 -30 -57 -34 -4 -56 13 -56 43 0 39 55 48
86 14z"/>
<path d="M5990 3857 c-14 -7 -31 -25 -38 -40 -12 -24 -11 -32 3 -53 45 -69
165 -39 165 42 0 56 -68 83 -130 51z m74 -23 c20 -8 21 -48 2 -63 -20 -17 -67
-10 -80 11 -8 13 -6 22 8 37 19 21 42 26 70 15z"/>
<path d="M162 3808 c-20 -20 -14 -67 13 -93 17 -18 35 -25 63 -25 50 0 81 24
91 71 l8 37 -48 10 c-47 9 -50 8 -55 -14 -3 -13 -3 -28 1 -33 10 -17 33 -13
38 7 4 16 4 16 12 -1 10 -24 -12 -47 -45 -47 -36 0 -52 21 -48 61 3 34 -10 47
-30 27z"/>
<path d="M6028 3583 c-36 -3 -46 -7 -41 -19 3 -8 19 -14 37 -15 l31 0 -33 -17
c-39 -19 -37 -33 8 -48 l33 -11 -32 -6 c-19 -4 -31 -13 -31 -23 0 -12 6 -15
23 -11 12 3 53 11 90 18 54 9 67 15 65 28 -2 11 -19 18 -52 23 -26 4 -50 9
-52 11 -3 2 18 14 46 26 28 12 50 28 50 36 0 15 -27 17 -142 8z"/>
<path d="M90 3355 l0 -45 53 0 c28 0 69 -3 90 -6 29 -5 37 -3 37 9 0 16 -20
27 -51 27 -12 0 -19 7 -19 20 0 13 -7 20 -20 20 -13 0 -20 -7 -20 -20 0 -11
-7 -20 -15 -20 -10 0 -15 10 -15 30 0 23 -4 30 -20 30 -17 0 -20 -7 -20 -45z"/>
<path d="M6098 3302 c-69 -2 -88 -6 -88 -17 0 -8 6 -15 13 -15 7 0 23 -13 35
-30 42 -56 138 -30 130 35 l-3 30 -87 -3z m50 -44 c-7 -19 -43 -21 -58 -3 -11
13 -8 15 25 15 25 0 35 -4 33 -12z"/>
<path d="M133 3145 c-62 -27 -65 -83 -7 -121 29 -20 87 -14 115 12 27 25 25
80 -3 98 -36 23 -70 27 -105 11z m85 -57 c3 -22 -2 -30 -23 -40 -18 -8 -32 -9
-43 -2 -50 32 -34 77 27 72 31 -3 36 -7 39 -30z"/>
<path d="M6017 3045 c-4 -9 -7 -30 -7 -46 0 -22 5 -29 20 -29 15 0 20 7 20 25
0 24 2 25 75 25 60 0 75 3 75 15 0 10 -10 15 -29 15 -15 0 -55 3 -88 6 -51 6
-61 4 -66 -11z"/>
<path d="M6000 2816 c0 -21 5 -23 98 -31 69 -6 82 -5 82 8 0 11 -16 17 -62 22
-35 3 -75 8 -90 11 -21 4 -28 2 -28 -10z"/>
<path d="M114 2694 c3 -9 6 -29 6 -45 0 -22 5 -29 20 -29 11 0 20 6 20 14 0
18 13 22 83 31 39 5 57 12 57 21 0 16 -33 17 -98 5 -34 -7 -45 -5 -49 5 -3 8
-14 14 -25 14 -14 0 -18 -5 -14 -16z"/>
<path d="M5974 2648 c-4 -6 -2 -14 4 -16 17 -5 15 -49 -3 -56 -8 -3 -15 -13
-15 -22 0 -13 6 -15 31 -10 17 3 58 6 90 6 52 0 59 2 59 20 0 14 -19 28 -76
55 -88 40 -81 38 -90 23z"/>
<path d="M304 2489 c-12 -14 -27 -19 -43 -16 -33 6 -69 -11 -78 -37 -6 -19 -5
-57 2 -64 1 -2 41 7 88 19 63 16 84 25 80 35 -3 9 -13 12 -29 8 -29 -7 -31 7
-4 24 21 13 27 37 11 46 -4 3 -17 -4 -27 -15z m-39 -59 c3 -5 -6 -12 -20 -16
-29 -7 -41 -1 -30 15 8 14 42 14 50 1z"/>
<path d="M5922 2392 c2 -10 18 -21 41 -26 20 -5 37 -13 37 -16 0 -4 -22 -10
-49 -14 -47 -6 -76 -31 -48 -41 45 -18 151 -43 158 -39 19 11 7 22 -37 33 -55
14 -52 20 12 29 34 5 50 12 52 24 3 13 -13 21 -70 38 -40 12 -79 23 -86 26 -9
2 -12 -3 -10 -14z"/>
<path d="M313 2219 c-104 -71 -99 -83 31 -73 62 5 86 11 86 20 0 8 -6 14 -14
14 -19 0 -27 24 -19 60 3 17 2 30 -3 29 -5 0 -42 -22 -81 -50z"/>
<path d="M5842 2124 c-30 -20 -31 -74 -2 -74 15 0 20 7 20 24 0 43 68 47 91 4
8 -15 7 -24 -5 -37 -21 -23 -4 -51 21 -35 20 12 28 44 19 80 -12 46 -99 70
-144 38z"/>
<path d="M378 1974 c-30 -16 -44 -50 -33 -84 8 -24 14 -23 111 21 39 18 64 35
61 42 -2 7 -10 11 -16 9 -7 -1 -22 4 -34 13 -27 19 -54 19 -89 -1z m57 -24 c3
-5 -8 -16 -25 -25 -26 -13 -30 -14 -30 -1 0 8 8 20 18 25 22 13 29 13 37 1z"/>
<path d="M5730 1880 c-19 -38 -19 -40 -1 -49 15 -8 20 -6 29 14 7 14 15 25 20
25 17 0 21 -13 11 -33 -8 -15 -8 -22 2 -28 21 -13 27 -11 34 11 8 25 40 28 32
3 -2 -10 -8 -25 -11 -34 -5 -10 -1 -19 8 -22 11 -5 22 5 36 33 l20 40 -80 40
-80 40 -20 -40z"/>
<path d="M641 1671 c-10 -6 -11 -13 -2 -29 6 -11 11 -23 11 -26 0 -3 -25 -20
-55 -38 -56 -33 -63 -42 -45 -53 12 -8 150 75 150 90 0 5 -10 22 -23 37 -15
19 -26 25 -36 19z"/>
<path d="M5545 1561 c-3 -5 8 -18 25 -27 32 -19 37 -29 20 -39 -15 -9 -12 -22
7 -29 10 -4 20 -1 25 8 5 8 15 13 24 9 13 -5 13 -8 0 -28 -14 -21 -14 -25 0
-36 8 -6 16 -10 17 -8 2 2 13 18 25 35 l22 31 -70 47 c-72 48 -85 53 -95 37z"/>
<path d="M724 1420 c-74 -92 -66 -105 43 -63 45 18 78 36 78 44 0 8 -6 13 -14
11 -18 -4 -41 29 -35 50 12 41 -20 22 -72 -42z"/>
<path d="M5396 1354 c-37 -36 -9 -112 50 -134 26 -10 73 3 86 23 31 48 -23
127 -86 127 -19 0 -42 -7 -50 -16z m94 -34 c24 -24 25 -43 6 -60 -38 -30 -107
27 -77 64 18 22 47 20 71 -4z"/>
<path d="M880 1224 c-61 -52 -75 -71 -57 -76 10 -4 137 102 137 113 0 22 -22
13 -80 -37z"/>
<path d="M5242 1178 c-9 -9 -8 -16 6 -31 16 -18 16 -19 -17 -15 -43 4 -53 -18
-12 -27 17 -4 31 -13 31 -21 0 -45 82 -71 113 -36 16 17 13 22 -46 80 -49 48
-65 60 -75 50z m78 -93 c7 -9 10 -18 7 -21 -10 -11 -37 5 -37 21 0 19 14 19
30 0z"/>
<path d="M1025 1086 c-33 -29 -54 -41 -61 -35 -7 6 -16 4 -24 -6 -11 -14 -9
-21 18 -47 26 -27 33 -29 47 -18 10 8 12 16 5 24 -7 9 5 27 40 61 43 42 54 65
32 65 -4 0 -29 -20 -57 -44z"/>
<path d="M1157 920 c-39 -46 -54 -71 -46 -76 7 -4 26 7 46 29 36 40 41 32 19
-31 -12 -33 -12 -43 -2 -52 11 -8 28 5 75 59 67 76 68 111 0 46 l-38 -38 16
50 c15 48 13 84 -4 82 -4 0 -34 -31 -66 -69z"/>
<path d="M4928 889 c-24 -13 -23 -61 0 -82 10 -10 35 -17 55 -17 40 0 50 -14
17 -23 -26 -7 -26 -24 0 -32 45 -14 68 46 31 79 -12 11 -31 16 -53 14 -24 -2
-33 1 -33 12 0 8 8 15 17 15 27 0 34 16 14 31 -23 16 -25 17 -48 3z"/>
<path d="M1412 813 c-8 -13 -4 -21 15 -36 30 -24 17 -45 -17 -27 -29 16 -46
-6 -24 -31 24 -27 18 -44 -11 -25 -30 20 -41 20 -48 2 -3 -8 9 -24 30 -39 l36
-26 17 22 c9 12 32 45 52 72 l36 50 -38 28 c-35 25 -40 26 -48 10z"/>
<path d="M4722 734 c-12 -8 -22 -21 -22 -29 0 -22 22 -30 32 -11 14 24 55 20
74 -9 19 -29 10 -65 -17 -65 -12 0 -19 -7 -19 -20 0 -30 45 -27 66 5 23 35 11
87 -27 119 -35 30 -56 32 -87 10z"/>
<path d="M1612 679 c-34 -13 -46 -54 -25 -90 20 -34 11 -49 -15 -26 -25 23
-32 21 -32 -8 0 -35 34 -51 66 -30 26 17 33 62 13 82 -13 13 -5 43 11 43 5 0
10 -6 10 -14 0 -7 6 -19 14 -25 11 -10 16 -8 21 8 7 22 -7 56 -27 64 -7 2 -23
1 -36 -4z"/>
<path d="M4547 624 c-3 -4 0 -19 8 -35 14 -26 14 -29 -5 -39 -17 -9 -23 -6
-38 19 -11 19 -22 27 -30 22 -15 -9 65 -161 85 -161 17 0 16 4 -3 42 -13 25
-14 32 -2 39 21 14 27 11 46 -20 12 -19 22 -27 30 -22 10 6 2 28 -28 84 -40
74 -49 84 -63 71z"/>
<path d="M1801 544 c-25 -32 -26 -38 -4 -75 20 -33 12 -49 -13 -24 -20 19 -35
5 -27 -26 7 -27 41 -34 64 -13 20 18 26 69 9 79 -16 10 -12 45 5 45 8 0 15 -6
15 -14 0 -8 7 -16 15 -20 11 -4 15 2 15 22 0 55 -45 69 -79 26z"/>
<path d="M4254 475 c-36 -55 11 -145 76 -145 60 0 81 84 34 139 -34 41 -85 43
-110 6z m96 -36 c17 -30 4 -69 -22 -69 -26 0 -58 27 -58 50 0 41 61 55 80 19z"/>
<path d="M2024 468 c-7 -10 14 -32 40 -41 8 -3 8 -8 0 -17 -9 -9 -17 -9 -32
-1 -16 9 -21 7 -25 -10 -4 -15 0 -23 14 -26 10 -3 19 -12 19 -20 0 -12 -8 -14
-35 -9 -28 6 -35 4 -35 -9 0 -18 69 -51 80 -38 8 9 60 140 60 151 0 7 -57 32
-73 32 -3 0 -9 -5 -13 -12z"/>
<path d="M4006 389 c-38 -30 -37 -90 3 -130 33 -32 56 -36 88 -14 47 33 32
128 -23 154 -33 15 -37 14 -68 -10z m73 -33 c7 -8 11 -30 9 -48 -2 -25 -8 -34
-24 -36 -27 -4 -54 22 -54 52 0 41 44 62 69 32z"/>
<path d="M2381 274 c-25 -99 -25 -94 -7 -94 8 0 19 20 26 48 14 52 13 53 34
-40 9 -41 34 -34 46 12 5 22 15 58 20 80 6 22 8 45 5 50 -12 20 -23 9 -30 -28
-11 -66 -23 -70 -30 -9 -5 41 -12 56 -25 60 -15 4 -21 -8 -39 -79z"/>
<path d="M3762 333 c-34 -7 -25 -39 10 -35 28 3 29 2 54 -100 3 -16 12 -28 20
-28 17 0 17 -2 -5 90 -19 79 -24 84 -79 73z"/>
<path d="M2654 233 c13 -142 27 -148 80 -32 37 84 39 102 7 82 -19 -12 -61 -7
-61 7 0 4 -7 11 -16 14 -15 6 -16 -2 -10 -71z"/>
<path d="M3532 278 c-28 -28 -7 -93 32 -100 30 -5 32 -28 2 -28 -14 0 -26 -4
-26 -9 0 -15 28 -33 46 -29 47 9 42 83 -6 100 -41 14 -41 42 0 33 22 -5 30 -3
30 7 0 20 -21 38 -45 38 -12 0 -26 -5 -33 -12z"/>
</g>
</svg>
